# Blender v2.83.3 OBJ File: 'petal.blend'
# www.blender.org
mtllib petal.mtl
o Plane
v -0.371612 0.028509 0.245791
v 0.297539 0.028509 0.280388
v -0.369054 0.028509 -0.380831
v 0.299887 0.028509 -0.393123
v -0.484651 0.028509 -0.054141
v -0.020825 0.028509 0.401498
v 0.424417 0.028509 -0.028261
v -0.023414 0.028509 -0.383185
v 0.001429 -0.089334 -0.035421
v -0.423237 0.028509 0.126884
v 0.158063 0.028509 0.342947
v 0.392049 0.028509 -0.203521
v -0.192213 0.028509 -0.484828
v -0.437826 0.028509 -0.224190
v -0.196511 0.028509 0.329719
v 0.388502 0.028509 0.150826
v 0.133654 0.028509 -0.487419
v -0.008504 -0.036390 -0.209902
v -0.002804 -0.054129 0.139527
v -0.202810 -0.068699 -0.044862
v 0.198545 -0.055445 -0.028299
v 0.185655 -0.036178 0.147681
v -0.197851 -0.046743 0.130925
v -0.193318 -0.051084 -0.217919
v 0.178901 -0.049565 -0.199435
v -0.392879 0.028509 0.219688
v 0.243750 0.028509 0.338761
v 0.368479 0.028509 -0.288429
v -0.281879 0.028509 -0.460596
v -0.466328 0.028509 -0.140636
v -0.107475 0.028509 0.336178
v 0.409441 0.028509 0.061040
v 0.055220 0.028509 -0.468972
v -0.015433 -0.005040 -0.297721
v 0.001181 -0.079504 0.050864
v -0.320447 -0.033312 -0.049298
v 0.099401 -0.084417 -0.030381
v -0.463994 0.028509 0.035479
v 0.069094 0.028509 0.367346
v 0.410938 0.028509 -0.116730
v -0.099895 0.028509 -0.458375
v -0.394212 0.028509 -0.304583
v -0.285002 0.028509 0.322182
v 0.324358 0.028509 0.241005
v 0.238953 0.028509 -0.431019
v -0.002764 -0.064371 -0.122809
v -0.008942 -0.025889 0.235756
v -0.097096 -0.090370 -0.039681
v 0.305237 -0.018579 -0.027336
v 0.196215 -0.051365 0.058342
v 0.170849 -0.012343 0.241470
v 0.091439 -0.050587 0.144210
v 0.283186 -0.011703 0.149878
v -0.202489 -0.057629 0.041019
v -0.194684 -0.013458 0.224656
v -0.305786 -0.016829 0.126854
v -0.098822 -0.047812 0.134349
v -0.187828 -0.035924 -0.310981
v -0.199511 -0.062706 -0.130928
v -0.299254 -0.020037 -0.219835
v -0.098924 -0.040187 -0.215545
v 0.159934 -0.032054 -0.292222
v 0.192013 -0.052727 -0.113740
v 0.083068 -0.047559 -0.204191
v 0.280874 -0.015625 -0.198697
v 0.297438 -0.016478 -0.113515
v 0.093610 -0.073004 -0.116755
v 0.069782 -0.020287 -0.295461
v -0.098404 -0.066375 -0.127395
v -0.312796 -0.029291 -0.134996
v -0.284613 -0.013982 -0.305718
v -0.101626 -0.014086 0.229533
v -0.291328 -0.004793 0.219959
v -0.317175 -0.025092 0.037462
v 0.261128 0.006074 0.240024
v 0.081411 -0.021920 0.239908
v 0.098540 -0.076400 0.055797
v 0.299205 -0.015272 0.060302
v -0.097542 -0.075513 0.046145
v -0.099331 -0.013529 -0.307453
v 0.259362 -0.014570 -0.286230
vt 0.875000 0.875000
vt 1.000000 0.875000
vt 1.000000 1.000000
vt 0.875000 1.000000
vt 0.375000 0.875000
vt 0.500000 0.875000
vt 0.500000 1.000000
vt 0.375000 1.000000
vt 0.375000 0.375000
vt 0.500000 0.375000
vt 0.500000 0.500000
vt 0.375000 0.500000
vt 0.875000 0.375000
vt 1.000000 0.375000
vt 1.000000 0.500000
vt 0.875000 0.500000
vt 0.625000 0.375000
vt 0.750000 0.375000
vt 0.750000 0.500000
vt 0.625000 0.500000
vt 0.625000 0.125000
vt 0.750000 0.125000
vt 0.750000 0.250000
vt 0.625000 0.250000
vt 0.875000 0.125000
vt 1.000000 0.125000
vt 1.000000 0.250000
vt 0.875000 0.250000
vt 0.125000 0.375000
vt 0.250000 0.375000
vt 0.250000 0.500000
vt 0.125000 0.500000
vt 0.125000 0.125000
vt 0.250000 0.125000
vt 0.250000 0.250000
vt 0.125000 0.250000
vt 0.375000 0.125000
vt 0.500000 0.125000
vt 0.500000 0.250000
vt 0.375000 0.250000
vt 0.125000 0.875000
vt 0.250000 0.875000
vt 0.250000 1.000000
vt 0.125000 1.000000
vt 0.125000 0.625000
vt 0.250000 0.625000
vt 0.250000 0.750000
vt 0.125000 0.750000
vt 0.375000 0.625000
vt 0.500000 0.625000
vt 0.500000 0.750000
vt 0.375000 0.750000
vt 0.625000 0.875000
vt 0.750000 0.875000
vt 0.750000 1.000000
vt 0.625000 1.000000
vt 0.625000 0.625000
vt 0.750000 0.625000
vt 0.750000 0.750000
vt 0.625000 0.750000
vt 0.875000 0.625000
vt 1.000000 0.625000
vt 1.000000 0.750000
vt 0.875000 0.750000
vt 0.000000 0.625000
vt 0.000000 0.750000
vt 0.000000 0.500000
vt 0.000000 0.875000
vt 0.000000 1.000000
vt 0.250000 0.000000
vt 0.375000 0.000000
vt 0.500000 0.000000
vt 0.000000 0.125000
vt 0.000000 0.250000
vt 0.000000 0.000000
vt 0.125000 0.000000
vt 0.000000 0.375000
vt 0.750000 0.000000
vt 0.875000 0.000000
vt 1.000000 0.000000
vt 0.625000 0.000000
vn -0.2883 0.9210 0.2619
vn -0.2105 0.9289 0.3046
vn 0.0213 0.9897 -0.1419
vn -0.3676 0.9280 -0.0610
vn -0.2623 0.9623 -0.0722
vn -0.1168 0.9531 -0.2794
vn -0.3349 0.9086 -0.2497
vn 0.2824 0.9527 -0.1123
vn 0.1898 0.9499 -0.2483
vn 0.1092 0.9472 -0.3015
vn 0.1587 0.9391 0.3047
vn 0.2753 0.9500 0.1470
vn -0.0460 0.9539 0.2965
vn 0.0915 0.9574 0.2738
vn -0.0992 0.9795 0.1754
vn -0.3651 0.9275 0.0799
vn -0.3199 0.9442 0.0777
vn -0.3257 0.9440 0.0537
vn -0.3665 0.9287 0.0558
vn 0.0828 0.9551 0.2846
vn 0.0070 0.9788 0.2045
vn -0.2431 0.9652 0.0968
vn 0.2280 0.9334 0.2769
vn 0.1281 0.9467 0.2954
vn 0.0623 0.9722 0.2256
vn -0.0424 0.9769 0.2095
vn 0.1128 0.9789 0.1702
vn -0.0274 0.9625 0.2700
vn 0.3349 0.9326 0.1349
vn 0.3492 0.9341 0.0745
vn 0.2823 0.9565 0.0738
vn 0.2869 0.9354 0.2066
vn 0.3386 0.9285 0.1525
vn 0.2525 0.9571 0.1419
vn 0.0228 0.9422 -0.3343
vn 0.0262 0.9287 -0.3700
vn 0.1882 0.9290 -0.3186
vn 0.3347 0.9317 -0.1410
vn 0.2826 0.9120 -0.2974
vn 0.0665 0.9374 -0.3418
vn 0.3482 0.9330 -0.0907
vn 0.3480 0.9266 -0.1427
vn 0.2719 0.9540 -0.1262
vn -0.2142 0.9426 -0.2562
vn -0.1088 0.9430 -0.3145
vn -0.2971 0.9229 -0.2450
vn -0.0253 0.9579 -0.2861
vn -0.0774 0.9367 -0.3413
vn -0.0978 0.9207 -0.3779
vn -0.0356 0.9940 -0.1031
vn -0.0193 0.9602 -0.2788
vn -0.1884 0.9527 -0.2385
vn -0.3274 0.9432 -0.0557
vn -0.2835 0.9485 -0.1415
vn -0.3609 0.9280 -0.0928
vn 0.1895 0.9709 -0.1465
vn 0.0992 0.9721 -0.2125
vn 0.0651 0.9563 -0.2850
vn -0.1672 0.9361 0.3094
vn -0.1816 0.9602 0.2121
vn -0.0940 0.9463 0.3093
vn -0.1740 0.9350 0.3089
vn -0.2493 0.9561 0.1544
vn -0.3635 0.9262 0.1007
usemtl None
s off
f 81/1/1 28/2/1 4/3/1 45/4/1
f 80/5/2 34/6/2 8/7/2 41/8/2
f 79/9/3 35/10/3 9/11/3 48/12/3
f 78/13/4 32/14/4 7/15/4 49/16/4
f 77/17/5 50/18/5 21/19/5 37/20/5
f 76/21/6 51/22/6 22/23/6 52/24/6
f 75/25/7 44/26/7 16/27/7 53/28/7
f 74/29/8 54/30/8 20/31/8 36/32/8
f 73/33/9 55/34/9 23/35/9 56/36/9
f 72/37/10 47/38/10 19/39/10 57/40/10
f 71/41/11 58/42/11 13/43/11 29/44/11
f 70/45/12 59/46/12 24/47/12 60/48/12
f 69/49/13 46/50/13 18/51/13 61/52/13
f 68/53/14 62/54/14 17/55/14 33/56/14
f 67/57/15 63/58/15 25/59/15 64/60/15
f 66/61/16 40/62/16 12/63/16 65/64/16
f 63/58/17 66/61/17 65/64/17 25/59/17
f 21/19/18 49/16/18 66/61/18 63/58/18
f 49/16/19 7/15/19 40/62/19 66/61/19
f 46/50/20 67/57/20 64/60/20 18/51/20
f 9/11/21 37/20/21 67/57/21 46/50/21
f 37/20/22 21/19/22 63/58/22 67/57/22
f 34/6/23 68/53/23 33/56/23 8/7/23
f 18/51/24 64/60/24 68/53/24 34/6/24
f 64/60/25 25/59/25 62/54/25 68/53/25
f 59/46/26 69/49/26 61/52/26 24/47/26
f 20/31/27 48/12/27 69/49/27 59/46/27
f 48/12/28 9/11/28 46/50/28 69/49/28
f 30/65/29 70/45/29 60/48/29 14/66/29
f 5/67/30 36/32/30 70/45/30 30/65/30
f 36/32/31 20/31/31 59/46/31 70/45/31
f 42/68/32 71/41/32 29/44/32 3/69/32
f 14/66/33 60/48/33 71/41/33 42/68/33
f 60/48/34 24/47/34 58/42/34 71/41/34
f 55/34/35 72/37/35 57/40/35 23/35/35
f 15/70/36 31/71/36 72/37/36 55/34/36
f 31/71/37 6/72/37 47/38/37 72/37/37
f 26/73/38 73/33/38 56/36/38 10/74/38
f 1/75/39 43/76/39 73/33/39 26/73/39
f 43/76/40 15/70/40 55/34/40 73/33/40
f 38/77/41 74/29/41 36/32/41 5/67/41
f 10/74/42 56/36/42 74/29/42 38/77/42
f 56/36/43 23/35/43 54/30/43 74/29/43
f 51/22/44 75/25/44 53/28/44 22/23/44
f 11/78/45 27/79/45 75/25/45 51/22/45
f 27/79/46 2/80/46 44/26/46 75/25/46
f 47/38/47 76/21/47 52/24/47 19/39/47
f 6/72/48 39/81/48 76/21/48 47/38/48
f 39/81/49 11/78/49 51/22/49 76/21/49
f 35/10/50 77/17/50 37/20/50 9/11/50
f 19/39/51 52/24/51 77/17/51 35/10/51
f 52/24/52 22/23/52 50/18/52 77/17/52
f 50/18/53 78/13/53 49/16/53 21/19/53
f 22/23/54 53/28/54 78/13/54 50/18/54
f 53/28/55 16/27/55 32/14/55 78/13/55
f 54/30/56 79/9/56 48/12/56 20/31/56
f 23/35/57 57/40/57 79/9/57 54/30/57
f 57/40/58 19/39/58 35/10/58 79/9/58
f 58/42/59 80/5/59 41/8/59 13/43/59
f 24/47/60 61/52/60 80/5/60 58/42/60
f 61/52/61 18/51/61 34/6/61 80/5/61
f 62/54/62 81/1/62 45/4/62 17/55/62
f 25/59/63 65/64/63 81/1/63 62/54/63
f 65/64/64 12/63/64 28/2/64 81/1/64
